<mxfile host="app.diagrams.net" modified="2020-12-10T07:28:45.627Z" agent="5.0 (Windows NT 10.0; Win64; x64) AppleWebKit/537.36 (KHTML, like Gecko) Chrome/86.0.4240.198 Safari/537.36" etag="ZKPYn5Xku59Q3yIzTldl" version="14.0.0" type="github">
  <diagram name="Page-1" id="13e1069c-82ec-6db2-03f1-153e76fe0fe0">
    <mxGraphModel dx="1128" dy="621" grid="0" gridSize="10" guides="0" tooltips="1" connect="1" arrows="1" fold="1" page="1" pageScale="1" pageWidth="1100" pageHeight="850" background="#ffffff" math="0" shadow="0">
      <root>
        <mxCell id="0" />
        <mxCell id="1" parent="0" />
        <mxCell id="7baba1c4bc27f4b0-2" value="网关" style="shape=umlLifeline;perimeter=lifelinePerimeter;whiteSpace=wrap;html=1;container=1;collapsible=0;recursiveResize=0;outlineConnect=0;rounded=1;shadow=0;comic=0;labelBackgroundColor=none;strokeWidth=1;fontFamily=Verdana;fontSize=12;align=center;" parent="1" vertex="1">
          <mxGeometry x="402" y="102" width="100" height="350" as="geometry" />
        </mxCell>
        <mxCell id="QnFFR12Hdzy7jSEyUIlK-40" value="" style="html=1;points=[];perimeter=orthogonalPerimeter;" parent="7baba1c4bc27f4b0-2" vertex="1">
          <mxGeometry x="45" y="94" width="10" height="150" as="geometry" />
        </mxCell>
        <mxCell id="7baba1c4bc27f4b0-4" value="基础平台" style="shape=umlLifeline;perimeter=lifelinePerimeter;whiteSpace=wrap;html=1;container=1;collapsible=0;recursiveResize=0;outlineConnect=0;rounded=1;shadow=0;comic=0;labelBackgroundColor=none;strokeWidth=1;fontFamily=Verdana;fontSize=12;align=center;" parent="1" vertex="1">
          <mxGeometry x="657" y="102" width="100" height="350" as="geometry" />
        </mxCell>
        <mxCell id="QnFFR12Hdzy7jSEyUIlK-49" value="" style="html=1;points=[];perimeter=orthogonalPerimeter;align=left;" parent="7baba1c4bc27f4b0-4" vertex="1">
          <mxGeometry x="45" y="104" width="10" height="80" as="geometry" />
        </mxCell>
        <mxCell id="7baba1c4bc27f4b0-5" value="低代码平台&lt;br&gt;后端服务A" style="shape=umlLifeline;perimeter=lifelinePerimeter;whiteSpace=wrap;html=1;container=1;collapsible=0;recursiveResize=0;outlineConnect=0;rounded=1;shadow=0;comic=0;labelBackgroundColor=none;strokeWidth=1;fontFamily=Verdana;fontSize=12;align=center;" parent="1" vertex="1">
          <mxGeometry x="797" y="102" width="100" height="345" as="geometry" />
        </mxCell>
        <mxCell id="QnFFR12Hdzy7jSEyUIlK-57" value="" style="html=1;points=[];perimeter=orthogonalPerimeter;align=left;" parent="7baba1c4bc27f4b0-5" vertex="1">
          <mxGeometry x="45" y="184" width="10" height="60" as="geometry" />
        </mxCell>
        <mxCell id="7baba1c4bc27f4b0-8" value="Browser(旧系统前端)" style="shape=umlLifeline;perimeter=lifelinePerimeter;whiteSpace=wrap;html=1;container=1;collapsible=0;recursiveResize=0;outlineConnect=0;rounded=1;shadow=0;comic=0;labelBackgroundColor=none;strokeWidth=1;fontFamily=Verdana;fontSize=12;align=center;" parent="1" vertex="1">
          <mxGeometry x="262" y="102" width="100" height="344" as="geometry" />
        </mxCell>
        <mxCell id="QnFFR12Hdzy7jSEyUIlK-39" value="" style="html=1;points=[];perimeter=orthogonalPerimeter;" parent="7baba1c4bc27f4b0-8" vertex="1">
          <mxGeometry x="45" y="83" width="10" height="173" as="geometry" />
        </mxCell>
        <mxCell id="QnFFR12Hdzy7jSEyUIlK-1" value="用户" style="shape=umlActor;verticalLabelPosition=bottom;verticalAlign=top;html=1;" parent="1" vertex="1">
          <mxGeometry x="297" y="12" width="30" height="60" as="geometry" />
        </mxCell>
        <mxCell id="QnFFR12Hdzy7jSEyUIlK-46" style="edgeStyle=orthogonalEdgeStyle;rounded=0;orthogonalLoop=1;jettySize=auto;html=1;" parent="1" source="QnFFR12Hdzy7jSEyUIlK-39" target="QnFFR12Hdzy7jSEyUIlK-40" edge="1">
          <mxGeometry relative="1" as="geometry">
            <Array as="points">
              <mxPoint x="370" y="210" />
              <mxPoint x="370" y="210" />
            </Array>
            <mxPoint x="327" y="206" as="sourcePoint" />
          </mxGeometry>
        </mxCell>
        <mxCell id="QnFFR12Hdzy7jSEyUIlK-48" value="&lt;span style=&quot;text-align: center&quot;&gt;访问资源&lt;/span&gt;&lt;br&gt;请求头：&lt;br&gt;&amp;nbsp; Authorization：&lt;br&gt;&amp;nbsp; btp_token" style="text;html=1;align=left;verticalAlign=middle;resizable=0;points=[];autosize=1;" parent="1" vertex="1">
          <mxGeometry x="328" y="194" width="100" height="60" as="geometry" />
        </mxCell>
        <mxCell id="QnFFR12Hdzy7jSEyUIlK-52" style="edgeStyle=orthogonalEdgeStyle;rounded=0;orthogonalLoop=1;jettySize=auto;html=1;entryX=-0.02;entryY=0.213;entryDx=0;entryDy=0;entryPerimeter=0;" parent="1" target="QnFFR12Hdzy7jSEyUIlK-49" edge="1">
          <mxGeometry relative="1" as="geometry">
            <mxPoint x="456" y="223" as="sourcePoint" />
            <mxPoint x="701" y="213" as="targetPoint" />
            <Array as="points">
              <mxPoint x="456" y="223" />
            </Array>
          </mxGeometry>
        </mxCell>
        <mxCell id="QnFFR12Hdzy7jSEyUIlK-53" value="获取用户信息&lt;br&gt;(请求头：&lt;span style=&quot;font-size: 12px ; background-color: rgb(248 , 249 , 250)&quot;&gt;Authorization：&lt;/span&gt;&lt;span style=&quot;font-size: 12px ; background-color: rgb(248 , 249 , 250)&quot;&gt;btp_token&lt;/span&gt;)" style="edgeLabel;html=1;align=left;verticalAlign=middle;resizable=0;points=[];" parent="QnFFR12Hdzy7jSEyUIlK-52" vertex="1" connectable="0">
          <mxGeometry x="-0.1" y="-1" relative="1" as="geometry">
            <mxPoint x="-103.33" y="-3.309999999999999" as="offset" />
          </mxGeometry>
        </mxCell>
        <mxCell id="QnFFR12Hdzy7jSEyUIlK-54" style="edgeStyle=orthogonalEdgeStyle;rounded=0;orthogonalLoop=1;jettySize=auto;html=1;dashed=1;" parent="1" source="QnFFR12Hdzy7jSEyUIlK-49" target="QnFFR12Hdzy7jSEyUIlK-40" edge="1">
          <mxGeometry relative="1" as="geometry">
            <Array as="points">
              <mxPoint x="592" y="256" />
              <mxPoint x="592" y="256" />
            </Array>
          </mxGeometry>
        </mxCell>
        <mxCell id="QnFFR12Hdzy7jSEyUIlK-55" value="return：userInfo" style="edgeLabel;html=1;align=center;verticalAlign=middle;resizable=0;points=[];" parent="QnFFR12Hdzy7jSEyUIlK-54" vertex="1" connectable="0">
          <mxGeometry x="0.2414" y="1" relative="1" as="geometry">
            <mxPoint x="9.670000000000002" as="offset" />
          </mxGeometry>
        </mxCell>
        <mxCell id="QnFFR12Hdzy7jSEyUIlK-58" style="edgeStyle=orthogonalEdgeStyle;rounded=0;orthogonalLoop=1;jettySize=auto;html=1;" parent="1" source="QnFFR12Hdzy7jSEyUIlK-40" target="QnFFR12Hdzy7jSEyUIlK-57" edge="1">
          <mxGeometry relative="1" as="geometry">
            <Array as="points">
              <mxPoint x="562" y="296" />
              <mxPoint x="562" y="296" />
            </Array>
          </mxGeometry>
        </mxCell>
        <mxCell id="QnFFR12Hdzy7jSEyUIlK-59" value="请求接口，并在请求头中带上用户信息" style="edgeLabel;html=1;align=center;verticalAlign=middle;resizable=0;points=[];" parent="QnFFR12Hdzy7jSEyUIlK-58" vertex="1" connectable="0">
          <mxGeometry x="0.1566" y="-3" relative="1" as="geometry">
            <mxPoint x="-102.33" y="-1" as="offset" />
          </mxGeometry>
        </mxCell>
        <mxCell id="QnFFR12Hdzy7jSEyUIlK-60" style="edgeStyle=orthogonalEdgeStyle;rounded=0;orthogonalLoop=1;jettySize=auto;html=1;entryX=1;entryY=0.933;entryDx=0;entryDy=0;entryPerimeter=0;dashed=1;" parent="1" source="QnFFR12Hdzy7jSEyUIlK-57" target="QnFFR12Hdzy7jSEyUIlK-40" edge="1">
          <mxGeometry relative="1" as="geometry">
            <Array as="points">
              <mxPoint x="808" y="336" />
              <mxPoint x="808" y="336" />
            </Array>
          </mxGeometry>
        </mxCell>
        <mxCell id="QnFFR12Hdzy7jSEyUIlK-61" value="返回接口数据" style="edgeLabel;html=1;align=center;verticalAlign=middle;resizable=0;points=[];" parent="QnFFR12Hdzy7jSEyUIlK-60" vertex="1" connectable="0">
          <mxGeometry x="-0.1663" y="2" relative="1" as="geometry">
            <mxPoint x="-152.83" y="-1.99" as="offset" />
          </mxGeometry>
        </mxCell>
        <mxCell id="QnFFR12Hdzy7jSEyUIlK-63" style="edgeStyle=orthogonalEdgeStyle;rounded=0;orthogonalLoop=1;jettySize=auto;html=1;entryX=0.95;entryY=0.843;entryDx=0;entryDy=0;entryPerimeter=0;dashed=1;" parent="1" source="QnFFR12Hdzy7jSEyUIlK-40" target="QnFFR12Hdzy7jSEyUIlK-39" edge="1">
          <mxGeometry relative="1" as="geometry">
            <Array as="points">
              <mxPoint x="412" y="336" />
              <mxPoint x="412" y="331" />
              <mxPoint x="318" y="331" />
            </Array>
            <mxPoint x="332" y="335.9200000000001" as="targetPoint" />
          </mxGeometry>
        </mxCell>
        <mxCell id="QnFFR12Hdzy7jSEyUIlK-64" value="返回接口数据" style="edgeLabel;html=1;align=center;verticalAlign=middle;resizable=0;points=[];" parent="QnFFR12Hdzy7jSEyUIlK-63" vertex="1" connectable="0">
          <mxGeometry x="-0.3246" relative="1" as="geometry">
            <mxPoint x="-15.83" as="offset" />
          </mxGeometry>
        </mxCell>
        <mxCell id="QnFFR12Hdzy7jSEyUIlK-66" value="旧系统访问低代码平台" style="shape=note;strokeWidth=2;fontSize=16;size=20;whiteSpace=wrap;html=1;fillColor=#fff2cc;strokeColor=#d6b656;fontColor=#666600;align=left;fontStyle=1" parent="1" vertex="1">
          <mxGeometry x="42" y="84" width="182" height="66" as="geometry" />
        </mxCell>
      </root>
    </mxGraphModel>
  </diagram>
</mxfile>
